# xmcd
#
# Track frame offsets:
#	150
#	15942
#	35878
#	62732
#	77242
#	104639
#	134474
#	165497
#	187339
#	206450
#	229284
#	256643
#	274918
#	289929
#	310067
#	338530
#
# Disc length: 4755 seconds
#
# Revision: 0
# Processed by: cddbd v1.5.2PL0 Copyright (c) Steve Scherf et al.
# Submitted via: EasyCDDAExtractor 10.0.2.1
#
DISCID=e8129110
DTITLE=Various Artist - Calling All Steppers Vol 2
DYEAR=2007
DGENRE=R&B
TTITLE0=Kanye West - Gold Digger
TTITLE1=Charlie Wilson - Magic
TTITLE2=Will Wheaton - Old School Soul
TTITLE3=Var Art - Car Wash (Steppres Mix)
TTITLE4=Pevern Everett - I Can Get It
TTITLE5=Barbara Mason - Yes, I'm Ready (Rmx)
TTITLE6=Pat Boone - Still Waters (Rmx)
TTITLE7=Rocky Robins - You And Me
TTITLE8=Nelly - Over and Over
TTITLE9=Gothan Project - Chunga's Revenge
TTITLE10=Seal - Touch (Acoustic Mix)
TTITLE11=Alicia Keys - Unbreakable
TTITLE12=Kindred and The Family Soul - As Of Yet
TTITLE13=Ashanti - Mega Mix
TTITLE14=Casper - Hold Up
TTITLE15=50 Cent w/Moob Deep - Out Of Control
EXTD=
EXTT0=
EXTT1=
EXTT2=
EXTT3=
EXTT4=
EXTT5=
EXTT6=
EXTT7=
EXTT8=
EXTT9=
EXTT10=
EXTT11=
EXTT12=
EXTT13=
EXTT14=
EXTT15=
PLAYORDER=
